<svg xmlns="http://www.w3.org/2000/svg" xmlns:svg="http://www.w3.org/2000/svg" id="svg1" width="446.488" height="145.13" version="1.1" viewBox="0 0 446.488 145.13"><g id="layer1" transform="translate(-33.871223,-172.59287)"><path d="m 418.39311,317.72288 c -0.004,-19.4573 4.6e-4,-25.10321 0.02,-40.88252 l -39.30405,-0.1173 c 2.50751,12.74085 7.89602,26.34551 16.16401,32.64816 5.49076,4.15156 14.95346,6.93473 23.12004,8.35166 z" style="font-weight:700;font-size:170.667px;line-height:.8;font-family:DengXian;-inkscape-font-specification:'DengXian Bold';text-align:center;text-anchor:middle;white-space:pre;inline-size:699.007;display:inline;fill:#c3b622;fill-opacity:1;stroke-width:3.29687;stroke-linecap:round;stroke-linejoin:round" id="path24"/><path d="m 440.51545,235.4894 v 82.12079 c 9.23337,-1.61314 20.95169,-4.83288 26.72861,-9.66203 8.74239,-7.31921 13.11505,-17.82383 13.11505,-31.51346 0,-5.55718 -0.71302,-10.43777 -2.1362,-14.63954 -1.42319,-4.20176 -3.52379,-7.89505 -6.30238,-11.08026 -2.77859,-3.18522 -6.53916,-6.06452 -11.28309,-8.6398 -3.53449,-1.96921 -13.05126,-4.16506 -20.12199,-6.5857 z" style="font-weight:700;font-size:170.667px;line-height:.8;font-family:DengXian;-inkscape-font-specification:'DengXian Bold';text-align:center;text-anchor:middle;white-space:pre;inline-size:699.007;display:inline;fill:#c3b622;fill-opacity:1;stroke-width:3.29687;stroke-linecap:round;stroke-linejoin:round" id="path23"/><path d="m 418.65648,249.61862 v -77.02576 c -7.97973,1.50742 -17.50231,4.47188 -22.77329,8.89415 -7.99692,6.70928 -11.99624,16.06185 -11.99624,28.05723 0,7.7936 1.32189,14.30051 3.96493,19.51884 2.71082,5.21832 6.5403,9.55573 11.48754,13.01202 3.75971,2.59114 12.12933,5.10474 19.31706,7.54352 z" style="font-weight:700;font-size:170.667px;line-height:.8;font-family:DengXian;-inkscape-font-specification:'DengXian Bold';text-align:center;text-anchor:middle;white-space:pre;inline-size:699.007;display:inline;fill:#c3b622;fill-opacity:1;stroke-width:3.29687;stroke-linecap:round;stroke-linejoin:round" id="path22"/><path d="m 440.36118,172.85848 0.0382,36.17866 36.40041,0.11394 c -2.91412,-11.52098 -8.20009,-24.24036 -15.85815,-29.59422 -4.40153,-3.14395 -14.17352,-5.37757 -20.58051,-6.69838 z" style="font-weight:700;font-size:170.667px;line-height:.8;font-family:DengXian;-inkscape-font-specification:'DengXian Bold';text-align:center;text-anchor:middle;white-space:pre;inline-size:699.007;display:inline;fill:#c3b622;fill-opacity:1;stroke-width:3.29687;stroke-linecap:round;stroke-linejoin:round" id="path21"/><path style="fill:#c32222;fill-opacity:1;stroke:none;stroke-width:3.29687;stroke-linecap:round;stroke-linejoin:round;stroke-dasharray:none;stroke-opacity:1" id="path10" d="M 86.018603,174.66576 33.871222,316.88588 H 136.05902 Z"/><path style="fill:#c37222;fill-opacity:1;stroke:none;stroke-width:3.29687;stroke-linecap:round;stroke-linejoin:round;stroke-dasharray:none;stroke-opacity:1" id="path11" d="m 148.43422,175.71924 65.05575,0.52674 c 37.52007,0 37.65383,84.27859 0,84.27859 H 189.78661 L 148.098,317.06094 Z"/><path d="m 321.47148,176.2455 v 140.86565 h 46.91469 l -34.79908,-60.27418 c 44.02216,0 39.6294,-80.59147 0,-80.59147 z" style="fill:#2273c3;fill-opacity:1;stroke-width:3.29687;stroke-linecap:round;stroke-linejoin:round" id="path17"/><path d="M 301.4563,317.11115 V 176.2455 h -48.67309 l -0.31399,140.86565 z" style="fill:#2273c3;fill-opacity:1;stroke-width:2.54627;stroke-linecap:round;stroke-linejoin:round" id="path16"/></g></svg>