<?xml version="1.0" encoding="UTF-8" standalone="no"?>
<!-- Created with Inkscape (http://www.inkscape.org/) -->

<svg
   width="282.16486"
   height="376.7944"
   viewBox="0 0 282.16486 376.7944"
   version="1.1"
   id="svg1"
   xmlns="http://www.w3.org/2000/svg"
   xmlns:svg="http://www.w3.org/2000/svg">
  <defs
     id="defs1" />
  <g
     id="layer1"
     transform="translate(-112.47852,-77.328652)">
    <path
       d="m 313.78915,454.12305 c -0.005,-23.60698 5.6e-4,-30.45699 0.0243,-49.60157 l -47.68647,-0.14232 c 3.04229,15.4581 9.58001,31.96425 19.61133,39.61107 6.66178,5.03696 18.1426,8.4137 28.05087,10.13282 z"
       style="font-weight:bold;font-size:170.667px;line-height:0.8;font-family:DengXian;-inkscape-font-specification:'DengXian Bold';text-align:center;text-anchor:middle;white-space:pre;inline-size:699.007;display:inline;fill:#c3b622;fill-opacity:1;stroke-width:4;stroke-linecap:round;stroke-linejoin:round"
       id="path24" />
    <path
       d="m 340.62955,354.35156 v 99.63477 c 11.20258,-1.95718 25.42007,-5.8636 32.42904,-11.72266 10.60689,-8.88018 15.91211,-21.62514 15.91211,-38.23437 0,-6.74236 -0.86509,-12.66384 -2.59179,-17.76172 -1.72671,-5.09788 -4.27531,-9.57884 -7.64649,-13.44336 -3.37118,-3.86453 -7.93378,-7.35791 -13.68945,-10.48242 -4.28829,-2.38919 -15.83471,-5.05334 -24.41342,-7.99024 z"
       style="font-weight:bold;font-size:170.667px;line-height:0.8;font-family:DengXian;-inkscape-font-specification:'DengXian Bold';text-align:center;text-anchor:middle;white-space:pre;inline-size:699.007;display:inline;fill:#c3b622;fill-opacity:1;stroke-width:4;stroke-linecap:round;stroke-linejoin:round"
       id="path23" />
    <path
       d="m 314.10869,371.49414 v -93.45312 c -9.68157,1.82891 -21.23504,5.4256 -27.63017,10.79101 -9.70243,8.14017 -14.55469,19.48738 -14.55469,34.04102 0,9.45575 1.60381,17.3504 4.81054,23.68164 3.28896,6.33124 7.93516,11.59369 13.9375,15.78711 4.56154,3.14376 14.71616,6.19343 23.43682,9.15234 z"
       style="font-weight:bold;font-size:170.667px;line-height:0.8;font-family:DengXian;-inkscape-font-specification:'DengXian Bold';text-align:center;text-anchor:middle;white-space:pre;inline-size:699.007;display:inline;fill:#c3b622;fill-opacity:1;stroke-width:4;stroke-linecap:round;stroke-linejoin:round"
       id="path22" />
    <path
       d="m 340.44237,278.36328 0.0464,43.89453 44.16356,0.13823 c -3.53562,-13.97807 -9.94893,-29.41012 -19.24023,-35.90581 -5.34025,-3.81446 -17.19632,-6.52445 -24.96974,-8.12695 z"
       style="font-weight:bold;font-size:170.667px;line-height:0.8;font-family:DengXian;-inkscape-font-specification:'DengXian Bold';text-align:center;text-anchor:middle;white-space:pre;inline-size:699.007;display:inline;fill:#c3b622;fill-opacity:1;stroke-width:4;stroke-linecap:round;stroke-linejoin:round"
       id="path21" />
    <path
       style="fill:#c32222;fill-opacity:1;stroke:none;stroke-width:4;stroke-linecap:round;stroke-linejoin:round;stroke-dasharray:none;stroke-opacity:1"
       d="M 176.38601,77.328648 113.11711,249.88018 H 237.09858 Z"
       id="path10" />
    <path
       style="fill:#c37222;fill-opacity:1;stroke:none;stroke-width:4;stroke-linecap:round;stroke-linejoin:round;stroke-dasharray:none;stroke-opacity:1"
       d="m 281.51073,78.606808 78.93024,0.63908 c 45.52202,0 45.6843,102.252762 0,102.252762 h -28.75859 l -50.57958,68.59393 z"
       id="path11" />
    <path
       d="m 196.19696,282.47266 v 170.9082 h 56.92023 l -42.22071,-73.12891 c 53.4108,0 48.0812,-97.77929 0,-97.77929 z"
       style="fill:#2273c3;fill-opacity:1;stroke-width:4;stroke-linecap:round;stroke-linejoin:round"
       id="path17" />
    <path
       d="m 171.91312,453.38086 v -170.9082 h -59.05364 l -0.38096,170.9082 z"
       style="fill:#2273c3;fill-opacity:1;stroke-width:3.08932;stroke-linecap:round;stroke-linejoin:round"
       id="path16" />
  </g>
</svg>
